<?xml version="1.0" standalone="no"?>
<!DOCTYPE svg PUBLIC "-//W3C//DTD SVG 20010904//EN"
 "http://www.w3.org/TR/2001/REC-SVG-20010904/DTD/svg10.dtd">
<svg version="1.0" xmlns="http://www.w3.org/2000/svg"
 width="260.000000pt" height="260.000000pt" viewBox="0 0 260.000000 260.000000"
 preserveAspectRatio="xMidYMid meet">
<metadata>
Created by potrace 1.11, written by Peter Selinger 2001-2013
</metadata>
<g transform="translate(0.000000,260.000000) scale(0.100000,-0.100000)"
fill="#000000" stroke="none">
<path d="M129 2117 c-1 -1 -2 -386 -3 -854 l-1 -853 57 0 57 0 -2 775 c-1 426
-1 772 0 768 4 -14 163 -562 225 -773 33 -113 91 -311 128 -440 38 -129 75
-255 82 -280 l14 -45 69 0 69 0 12 45 c6 25 39 137 72 250 33 113 95 324 137
470 42 146 81 279 86 295 11 35 110 375 113 390 9 36 27 95 31 95 2 0 2 -30
-1 -67 -2 -38 -4 -385 -5 -773 l-1 -705 58 -3 59 -3 0 853 0 853 -90 2 -90 1
-203 -701 c-212 -731 -241 -837 -244 -874 -2 -22 -10 -22 -14 0 -13 83 -32
160 -75 307 -28 96 -54 189 -59 205 -7 28 -143 490 -211 720 -51 174 -67 229
-80 275 -7 25 -16 50 -21 56 -6 9 -165 19 -169 11z"/>
<path d="M1759 2117 c-1 -1 -2 -386 -3 -855 l-1 -853 255 3 255 3 64 35 c143
77 215 243 206 475 -5 143 -40 233 -118 306 -29 26 -120 69 -148 69 -31 0 -14
13 45 35 117 43 185 171 187 355 4 234 -87 369 -278 413 -46 11 -458 23 -464
14z m482 -140 c92 -45 140 -137 140 -267 0 -125 -30 -222 -83 -278 -62 -63
-146 -79 -385 -73 l-42 1 1 326 1 326 156 -3 c146 -4 159 -6 212 -32z m1 -754
c122 -56 180 -178 171 -360 -8 -187 -70 -295 -188 -333 -37 -12 -314 -22 -342
-13 -8 3 -11 103 -11 370 l0 365 161 -4 c140 -3 168 -6 209 -25z"/>
</g>
</svg>
